<mxfile host="Electron" modified="2024-01-30T09:52:11.398Z" agent="Mozilla/5.0 (Windows NT 10.0; Win64; x64) AppleWebKit/537.36 (KHTML, like Gecko) draw.io/23.0.2 Chrome/120.0.6099.109 Electron/28.1.0 Safari/537.36" etag="qqaIOhDCBlc8JSqRMYrE" version="23.0.2" type="device">
  <diagram id="C5RBs43oDa-KdzZeNtuy" name="Page-1">
    <mxGraphModel dx="1884" dy="1189" grid="1" gridSize="10" guides="1" tooltips="1" connect="1" arrows="1" fold="1" page="1" pageScale="1" pageWidth="827" pageHeight="1169" math="0" shadow="0">
      <root>
        <mxCell id="WIyWlLk6GJQsqaUBKTNV-0" />
        <mxCell id="WIyWlLk6GJQsqaUBKTNV-1" parent="WIyWlLk6GJQsqaUBKTNV-0" />
        <mxCell id="Glf48mm-ERDu-e3y7JmT-5" value="" style="edgeStyle=orthogonalEdgeStyle;rounded=0;orthogonalLoop=1;jettySize=auto;html=1;" edge="1" parent="WIyWlLk6GJQsqaUBKTNV-1" source="Glf48mm-ERDu-e3y7JmT-1" target="Glf48mm-ERDu-e3y7JmT-4">
          <mxGeometry relative="1" as="geometry" />
        </mxCell>
        <mxCell id="Glf48mm-ERDu-e3y7JmT-1" value="Pelanggan Lapar" style="strokeWidth=2;html=1;shape=mxgraph.flowchart.terminator;whiteSpace=wrap;" vertex="1" parent="WIyWlLk6GJQsqaUBKTNV-1">
          <mxGeometry x="336" y="40" width="100" height="60" as="geometry" />
        </mxCell>
        <mxCell id="Glf48mm-ERDu-e3y7JmT-2" value="Pemesanan Selesai" style="strokeWidth=2;html=1;shape=mxgraph.flowchart.terminator;whiteSpace=wrap;" vertex="1" parent="WIyWlLk6GJQsqaUBKTNV-1">
          <mxGeometry x="580" y="1090" width="100" height="60" as="geometry" />
        </mxCell>
        <mxCell id="Glf48mm-ERDu-e3y7JmT-7" value="" style="edgeStyle=orthogonalEdgeStyle;rounded=0;orthogonalLoop=1;jettySize=auto;html=1;" edge="1" parent="WIyWlLk6GJQsqaUBKTNV-1" source="Glf48mm-ERDu-e3y7JmT-4" target="Glf48mm-ERDu-e3y7JmT-6">
          <mxGeometry relative="1" as="geometry" />
        </mxCell>
        <mxCell id="Glf48mm-ERDu-e3y7JmT-4" value="Pelanggan membuka &lt;br&gt;aplikasi" style="verticalLabelPosition=middle;verticalAlign=middle;html=1;shape=trapezoid;perimeter=trapezoidPerimeter;whiteSpace=wrap;size=0.23;arcSize=10;flipV=1;labelPosition=center;align=center;" vertex="1" parent="WIyWlLk6GJQsqaUBKTNV-1">
          <mxGeometry x="336" y="140" width="100" height="60" as="geometry" />
        </mxCell>
        <mxCell id="Glf48mm-ERDu-e3y7JmT-9" value="" style="edgeStyle=orthogonalEdgeStyle;rounded=0;orthogonalLoop=1;jettySize=auto;html=1;" edge="1" parent="WIyWlLk6GJQsqaUBKTNV-1" source="Glf48mm-ERDu-e3y7JmT-6" target="Glf48mm-ERDu-e3y7JmT-8">
          <mxGeometry relative="1" as="geometry" />
        </mxCell>
        <mxCell id="Glf48mm-ERDu-e3y7JmT-6" value="Aplikasi Menampilkan Menu" style="rounded=1;whiteSpace=wrap;html=1;fontSize=12;glass=0;strokeWidth=1;shadow=0;" vertex="1" parent="WIyWlLk6GJQsqaUBKTNV-1">
          <mxGeometry x="326" y="240" width="120" height="40" as="geometry" />
        </mxCell>
        <mxCell id="Glf48mm-ERDu-e3y7JmT-11" value="" style="edgeStyle=orthogonalEdgeStyle;rounded=0;orthogonalLoop=1;jettySize=auto;html=1;" edge="1" parent="WIyWlLk6GJQsqaUBKTNV-1" source="Glf48mm-ERDu-e3y7JmT-8" target="Glf48mm-ERDu-e3y7JmT-10">
          <mxGeometry relative="1" as="geometry" />
        </mxCell>
        <mxCell id="Glf48mm-ERDu-e3y7JmT-8" value="Pelanggan memilih &lt;br&gt;makanan" style="verticalLabelPosition=middle;verticalAlign=middle;html=1;shape=trapezoid;perimeter=trapezoidPerimeter;whiteSpace=wrap;size=0.23;arcSize=10;flipV=1;labelPosition=center;align=center;" vertex="1" parent="WIyWlLk6GJQsqaUBKTNV-1">
          <mxGeometry x="336" y="310" width="100" height="60" as="geometry" />
        </mxCell>
        <mxCell id="Glf48mm-ERDu-e3y7JmT-13" value="" style="edgeStyle=orthogonalEdgeStyle;rounded=0;orthogonalLoop=1;jettySize=auto;html=1;" edge="1" parent="WIyWlLk6GJQsqaUBKTNV-1" source="Glf48mm-ERDu-e3y7JmT-10" target="Glf48mm-ERDu-e3y7JmT-12">
          <mxGeometry relative="1" as="geometry" />
        </mxCell>
        <mxCell id="Glf48mm-ERDu-e3y7JmT-10" value="Aplikasi Menampilkan Detail Makanan" style="rounded=1;whiteSpace=wrap;html=1;fontSize=12;glass=0;strokeWidth=1;shadow=0;" vertex="1" parent="WIyWlLk6GJQsqaUBKTNV-1">
          <mxGeometry x="326" y="400" width="120" height="40" as="geometry" />
        </mxCell>
        <mxCell id="Glf48mm-ERDu-e3y7JmT-15" value="" style="edgeStyle=orthogonalEdgeStyle;rounded=0;orthogonalLoop=1;jettySize=auto;html=1;" edge="1" parent="WIyWlLk6GJQsqaUBKTNV-1" source="Glf48mm-ERDu-e3y7JmT-12" target="Glf48mm-ERDu-e3y7JmT-14">
          <mxGeometry relative="1" as="geometry" />
        </mxCell>
        <mxCell id="Glf48mm-ERDu-e3y7JmT-12" value="Pelanggan&lt;br&gt;Memilih&lt;br&gt;Jumlah&lt;br&gt;Makanan" style="verticalLabelPosition=middle;verticalAlign=middle;html=1;shape=trapezoid;perimeter=trapezoidPerimeter;whiteSpace=wrap;size=0.23;arcSize=10;flipV=1;labelPosition=center;align=center;" vertex="1" parent="WIyWlLk6GJQsqaUBKTNV-1">
          <mxGeometry x="336" y="470" width="100" height="60" as="geometry" />
        </mxCell>
        <mxCell id="Glf48mm-ERDu-e3y7JmT-18" value="" style="edgeStyle=orthogonalEdgeStyle;rounded=0;orthogonalLoop=1;jettySize=auto;html=1;" edge="1" parent="WIyWlLk6GJQsqaUBKTNV-1" source="Glf48mm-ERDu-e3y7JmT-14" target="Glf48mm-ERDu-e3y7JmT-16">
          <mxGeometry relative="1" as="geometry" />
        </mxCell>
        <mxCell id="Glf48mm-ERDu-e3y7JmT-14" value="Aplikasi Menambahkan Makanan ke keranjang" style="rounded=1;whiteSpace=wrap;html=1;fontSize=12;glass=0;strokeWidth=1;shadow=0;" vertex="1" parent="WIyWlLk6GJQsqaUBKTNV-1">
          <mxGeometry x="326" y="574" width="120" height="60" as="geometry" />
        </mxCell>
        <mxCell id="Glf48mm-ERDu-e3y7JmT-17" style="edgeStyle=orthogonalEdgeStyle;rounded=0;orthogonalLoop=1;jettySize=auto;html=1;entryX=1;entryY=0.5;entryDx=0;entryDy=0;" edge="1" parent="WIyWlLk6GJQsqaUBKTNV-1" source="Glf48mm-ERDu-e3y7JmT-16" target="Glf48mm-ERDu-e3y7JmT-8">
          <mxGeometry relative="1" as="geometry">
            <mxPoint x="486" y="350" as="targetPoint" />
            <Array as="points">
              <mxPoint x="502" y="730" />
              <mxPoint x="502" y="340" />
            </Array>
          </mxGeometry>
        </mxCell>
        <mxCell id="Glf48mm-ERDu-e3y7JmT-19" value="Ya" style="edgeLabel;html=1;align=center;verticalAlign=middle;resizable=0;points=[];" vertex="1" connectable="0" parent="Glf48mm-ERDu-e3y7JmT-17">
          <mxGeometry x="-0.7901" relative="1" as="geometry">
            <mxPoint x="16" y="-200" as="offset" />
          </mxGeometry>
        </mxCell>
        <mxCell id="Glf48mm-ERDu-e3y7JmT-20" value="" style="edgeStyle=orthogonalEdgeStyle;rounded=0;orthogonalLoop=1;jettySize=auto;html=1;entryX=0.5;entryY=0;entryDx=0;entryDy=0;" edge="1" parent="WIyWlLk6GJQsqaUBKTNV-1" source="Glf48mm-ERDu-e3y7JmT-16" target="Glf48mm-ERDu-e3y7JmT-21">
          <mxGeometry relative="1" as="geometry" />
        </mxCell>
        <mxCell id="Glf48mm-ERDu-e3y7JmT-23" value="Tidak" style="edgeLabel;html=1;align=center;verticalAlign=middle;resizable=0;points=[];" vertex="1" connectable="0" parent="Glf48mm-ERDu-e3y7JmT-20">
          <mxGeometry x="-0.6178" y="-1" relative="1" as="geometry">
            <mxPoint y="1" as="offset" />
          </mxGeometry>
        </mxCell>
        <mxCell id="Glf48mm-ERDu-e3y7JmT-16" value="Lanjut Pesanan?" style="rhombus;whiteSpace=wrap;html=1;" vertex="1" parent="WIyWlLk6GJQsqaUBKTNV-1">
          <mxGeometry x="346" y="690" width="80" height="80" as="geometry" />
        </mxCell>
        <mxCell id="Glf48mm-ERDu-e3y7JmT-25" value="" style="edgeStyle=orthogonalEdgeStyle;rounded=0;orthogonalLoop=1;jettySize=auto;html=1;" edge="1" parent="WIyWlLk6GJQsqaUBKTNV-1" source="Glf48mm-ERDu-e3y7JmT-21" target="Glf48mm-ERDu-e3y7JmT-24">
          <mxGeometry relative="1" as="geometry" />
        </mxCell>
        <mxCell id="Glf48mm-ERDu-e3y7JmT-21" value="Aplikasi Menampilkan Ringkasan Pemesanan" style="rounded=1;whiteSpace=wrap;html=1;fontSize=12;glass=0;strokeWidth=1;shadow=0;" vertex="1" parent="WIyWlLk6GJQsqaUBKTNV-1">
          <mxGeometry x="326" y="800" width="120" height="60" as="geometry" />
        </mxCell>
        <mxCell id="Glf48mm-ERDu-e3y7JmT-27" value="" style="edgeStyle=orthogonalEdgeStyle;rounded=0;orthogonalLoop=1;jettySize=auto;html=1;" edge="1" parent="WIyWlLk6GJQsqaUBKTNV-1" source="Glf48mm-ERDu-e3y7JmT-24" target="Glf48mm-ERDu-e3y7JmT-26">
          <mxGeometry relative="1" as="geometry" />
        </mxCell>
        <mxCell id="Glf48mm-ERDu-e3y7JmT-24" value="Pelanggan&lt;br&gt;Memilih&lt;br&gt;Opsi Bayar" style="verticalLabelPosition=middle;verticalAlign=middle;html=1;shape=trapezoid;perimeter=trapezoidPerimeter;whiteSpace=wrap;size=0.23;arcSize=10;flipV=1;labelPosition=center;align=center;" vertex="1" parent="WIyWlLk6GJQsqaUBKTNV-1">
          <mxGeometry x="336" y="900" width="100" height="60" as="geometry" />
        </mxCell>
        <mxCell id="Glf48mm-ERDu-e3y7JmT-35" style="edgeStyle=orthogonalEdgeStyle;rounded=0;orthogonalLoop=1;jettySize=auto;html=1;entryX=0;entryY=0.5;entryDx=0;entryDy=0;" edge="1" parent="WIyWlLk6GJQsqaUBKTNV-1" source="Glf48mm-ERDu-e3y7JmT-26" target="Glf48mm-ERDu-e3y7JmT-28">
          <mxGeometry relative="1" as="geometry">
            <Array as="points">
              <mxPoint x="500" y="1030" />
              <mxPoint x="500" y="840" />
            </Array>
          </mxGeometry>
        </mxCell>
        <mxCell id="Glf48mm-ERDu-e3y7JmT-26" value="Aplikasi Mengarahkan ke menu pembayaran" style="rounded=1;whiteSpace=wrap;html=1;fontSize=12;glass=0;strokeWidth=1;shadow=0;" vertex="1" parent="WIyWlLk6GJQsqaUBKTNV-1">
          <mxGeometry x="326" y="1000" width="120" height="60" as="geometry" />
        </mxCell>
        <mxCell id="Glf48mm-ERDu-e3y7JmT-31" value="" style="edgeStyle=orthogonalEdgeStyle;rounded=0;orthogonalLoop=1;jettySize=auto;html=1;" edge="1" parent="WIyWlLk6GJQsqaUBKTNV-1" source="Glf48mm-ERDu-e3y7JmT-28" target="Glf48mm-ERDu-e3y7JmT-30">
          <mxGeometry relative="1" as="geometry" />
        </mxCell>
        <mxCell id="Glf48mm-ERDu-e3y7JmT-28" value="Pelanggan &lt;br&gt;Memasukkan detail pembayarannya" style="verticalLabelPosition=middle;verticalAlign=middle;html=1;shape=trapezoid;perimeter=trapezoidPerimeter;whiteSpace=wrap;size=0.23;arcSize=10;flipV=1;labelPosition=center;align=center;" vertex="1" parent="WIyWlLk6GJQsqaUBKTNV-1">
          <mxGeometry x="555" y="800" width="150" height="80" as="geometry" />
        </mxCell>
        <mxCell id="Glf48mm-ERDu-e3y7JmT-33" value="" style="edgeStyle=orthogonalEdgeStyle;rounded=0;orthogonalLoop=1;jettySize=auto;html=1;" edge="1" parent="WIyWlLk6GJQsqaUBKTNV-1" source="Glf48mm-ERDu-e3y7JmT-30" target="Glf48mm-ERDu-e3y7JmT-32">
          <mxGeometry relative="1" as="geometry" />
        </mxCell>
        <mxCell id="Glf48mm-ERDu-e3y7JmT-30" value="Aplikasi Proses Pembayaran" style="rounded=1;whiteSpace=wrap;html=1;fontSize=12;glass=0;strokeWidth=1;shadow=0;" vertex="1" parent="WIyWlLk6GJQsqaUBKTNV-1">
          <mxGeometry x="570" y="910" width="120" height="60" as="geometry" />
        </mxCell>
        <mxCell id="Glf48mm-ERDu-e3y7JmT-34" value="" style="edgeStyle=orthogonalEdgeStyle;rounded=0;orthogonalLoop=1;jettySize=auto;html=1;" edge="1" parent="WIyWlLk6GJQsqaUBKTNV-1" source="Glf48mm-ERDu-e3y7JmT-32" target="Glf48mm-ERDu-e3y7JmT-2">
          <mxGeometry relative="1" as="geometry" />
        </mxCell>
        <mxCell id="Glf48mm-ERDu-e3y7JmT-32" value="Aplikasi Konfirmasi Pembayaran" style="rounded=1;whiteSpace=wrap;html=1;fontSize=12;glass=0;strokeWidth=1;shadow=0;" vertex="1" parent="WIyWlLk6GJQsqaUBKTNV-1">
          <mxGeometry x="570" y="1000" width="120" height="60" as="geometry" />
        </mxCell>
      </root>
    </mxGraphModel>
  </diagram>
</mxfile>
